RobotoSerifDisplay-SuperWidth300.ufo
<glyph name="at" format="2">
  <advance width="698.13"/>
  <unicode hex="0040"/>
  <outline>
    <contour>
      <point x="356.88" y="-107.0" type="curve" smooth="yes"/>
      <point x="204.92561475409" y="-107.0"/>
      <point x="98.11999999999999" y="3.4000000000000004"/>
      <point x="98.11999999999999" y="231.0" type="curve" smooth="yes"/>
      <point x="98.11999999999999" y="470.6"/>
      <point x="217.23" y="627.0"/>
      <point x="381.445" y="627.0" type="curve" smooth="yes"/>
      <point x="524.90675" y="627.0"/>
      <point x="611.05" y="514.81484949834"/>
      <point x="611.05" y="341.6" type="curve" smooth="yes"/>
      <point x="611.05" y="172.18120754718"/>
      <point x="552.3804193848924" y="97.4"/>
      <point x="522.6" y="97.4" type="curve" smooth="yes"/>
      <point x="509.075" y="97.4"/>
      <point x="506.245" y="113.0"/>
      <point x="510.155" y="153.4" type="curve" smooth="yes"/>
      <point x="552.845" y="470.4" type="line"/>
      <point x="438.89" y="470.4" type="line"/>
      <point x="398.765" y="423.0" type="line"/>
      <point x="390.83" y="418.0" type="line"/>
      <point x="356.375" y="137.4" type="line"/>
      <point x="355.685" y="137.6"/>
      <point x="369.52" y="139.6"/>
      <point x="369.67" y="139.8" type="curve"/>
      <point x="381.1" y="89.0"/>
      <point x="419.385" y="51.4"/>
      <point x="492.94" y="51.4" type="curve" smooth="yes"/>
      <point x="583.597396313385" y="51.4"/>
      <point x="684.985" y="157.97317406144"/>
      <point x="684.985" y="341.2" type="curve" smooth="yes"/>
      <point x="684.985" y="531.61776435048"/>
      <point x="564.76" y="673.0"/>
      <point x="381.445" y="673.0" type="curve" smooth="yes"/>
      <point x="173.92000000000002" y="673.0"/>
      <point x="13.250000000000004" y="487.0"/>
      <point x="13.250000000000004" y="231.0" type="curve" smooth="yes"/>
      <point x="13.250000000000004" y="-8.0"/>
      <point x="161.62323943664" y="-153.0"/>
      <point x="356.88" y="-153.0" type="curve" smooth="yes"/>
      <point x="444.65665354329997" y="-153.0"/>
      <point x="530.278447422175" y="-124.18094477034"/>
      <point x="585.185" y="-86.8" type="curve"/>
      <point x="574.685" y="-41.8" type="line"/>
      <point x="514.852548584145" y="-80.589327357842"/>
      <point x="439.6825" y="-107.0"/>
    </contour>
    <contour>
      <point x="275.815" y="46.6" type="curve" smooth="yes"/>
      <point x="341.045" y="46.6"/>
      <point x="393.015" y="115.2"/>
      <point x="402.055" y="223.60000000000002" type="curve"/>
      <point x="382.55" y="237.8" type="line"/>
      <point x="365.195" y="136.2"/>
      <point x="346.415" y="110.2"/>
      <point x="330.865" y="110.2" type="curve" smooth="yes"/>
      <point x="313.43" y="110.2"/>
      <point x="303.16" y="143.2"/>
      <point x="303.16" y="211.2" type="curve" smooth="yes"/>
      <point x="303.16" y="348.6"/>
      <point x="324.505" y="430.4"/>
      <point x="358.03" y="430.4" type="curve" smooth="yes"/>
      <point x="381.86" y="430.4"/>
      <point x="395.73" y="402.2"/>
      <point x="404.895" y="339.6" type="curve"/>
      <point x="434.635" y="352.2" type="line"/>
      <point x="420.11" y="432.2"/>
      <point x="391.255" y="476.4"/>
      <point x="322.495" y="476.4" type="curve" smooth="yes"/>
      <point x="217.98" y="476.4"/>
      <point x="148.195" y="347.0"/>
      <point x="148.195" y="225.4" type="curve" smooth="yes"/>
      <point x="148.195" y="107.8"/>
      <point x="210.47" y="46.6"/>
    </contour>
  </outline>
</glyph>
<glyph name="B" format="2">
  <advance width="579"/>
  <unicode hex="0042"/>
  <outline>
    <contour>
      <point x="338.20000000000005" y="710.0" type="curve" smooth="yes"/>
      <point x="14.825" y="710.0" type="line"/>
      <point x="14.825" y="670.4" type="line"/>
      <point x="23.22" y="670.4" type="line" smooth="yes"/>
      <point x="39.894999999999996" y="670.4"/>
      <point x="51.535000000000004" y="664.2"/>
      <point x="51.535000000000004" y="638.4" type="curve" smooth="yes"/>
      <point x="51.535000000000004" y="71.6" type="line" smooth="yes"/>
      <point x="51.535000000000004" y="45.8"/>
      <point x="39.849999999999994" y="39.6"/>
      <point x="23.22" y="39.6" type="curve" smooth="yes"/>
      <point x="14.825" y="39.6" type="line"/>
      <point x="14.825" y="0.0" type="line"/>
      <point x="342.91499999999996" y="0.0" type="line" smooth="yes"/>
      <point x="487.98" y="0.0"/>
      <point x="565.62" y="80.8"/>
      <point x="565.62" y="203.0" type="curve" smooth="yes"/>
      <point x="565.62" y="318.8"/>
      <point x="472.11" y="378.0"/>
      <point x="356.37" y="382.0" type="curve"/>
      <point x="368.09000000000003" y="372.6" type="line"/>
      <point x="368.09000000000003" y="384.4" type="line"/>
      <point x="358.29" y="374.0" type="line"/>
      <point x="458.85" y="380.4"/>
      <point x="545.8499999999999" y="439.6"/>
      <point x="545.8499999999999" y="544.4" type="curve" smooth="yes"/>
      <point x="545.8499999999999" y="647.2"/>
      <point x="475.215" y="710.0"/>
    </contour>
    <contour>
      <point x="266.69" y="46.8" type="line"/>
      <point x="266.69" y="663.2" type="line"/>
      <point x="280.965" y="663.2" type="line" smooth="yes"/>
      <point x="315.755" y="663.2"/>
      <point x="333.04" y="630.8"/>
      <point x="333.04" y="529.0" type="curve" smooth="yes"/>
      <point x="333.04" y="438.8"/>
      <point x="312.465" y="392.8"/>
      <point x="264.945" y="392.8" type="curve" smooth="yes"/>
      <point x="252.77499999999998" y="392.8" type="line"/>
      <point x="252.77499999999998" y="347.8" type="line"/>
      <point x="267.315" y="347.8" type="line" smooth="yes"/>
      <point x="323.69" y="347.8"/>
      <point x="348.865" y="304.8"/>
      <point x="348.865" y="208.8" type="curve" smooth="yes"/>
      <point x="348.865" y="81.8"/>
      <point x="324.185" y="46.8"/>
      <point x="280.53999999999996" y="46.8" type="curve" smooth="yes"/>
    </contour>
  </outline>
</glyph>
<glyph name="D" format="2">
  <advance width="629"/>
  <unicode hex="0044"/>
  <outline>
    <contour>
      <point x="14.825" y="670.4" type="line"/>
      <point x="23.565" y="670.4" type="line" smooth="yes"/>
      <point x="39.895" y="670.4"/>
      <point x="51.535" y="663.4"/>
      <point x="51.535" y="634.4" type="curve" smooth="yes"/>
      <point x="51.535" y="75.6" type="line" smooth="yes"/>
      <point x="51.535" y="45.0"/>
      <point x="39.85" y="39.6"/>
      <point x="23.565" y="39.6" type="curve" smooth="yes"/>
      <point x="14.825" y="39.6" type="line"/>
      <point x="14.825" y="0.0" type="line"/>
      <point x="302.84999999999997" y="0.0" type="line" smooth="yes"/>
      <point x="482.17499999999995" y="0.0"/>
      <point x="609.76" y="133.0"/>
      <point x="609.76" y="357.0" type="curve" smooth="yes"/>
      <point x="609.76" y="582.0"/>
      <point x="482.17499999999995" y="710.0"/>
      <point x="302.84999999999997" y="710.0" type="curve" smooth="yes"/>
      <point x="14.825" y="710.0" type="line"/>
    </contour>
    <contour>
      <point x="299.05499999999995" y="660.6" type="line" smooth="yes"/>
      <point x="353.5" y="660.6"/>
      <point x="386.255" y="576.8216300940438"/>
      <point x="386.255" y="357.0" type="curve" smooth="yes"/>
      <point x="386.255" y="137.37770897832817"/>
      <point x="353.5" y="49.400000000000006"/>
      <point x="299.05499999999995" y="49.400000000000006" type="curve" smooth="yes"/>
      <point x="266.68999999999994" y="49.400000000000006" type="line"/>
      <point x="266.68999999999994" y="660.6" type="line"/>
    </contour>
  </outline>
</glyph>
<glyph name="G" format="2">
  <advance width="575"/>
  <unicode hex="0047"/>
  <outline>
    <contour>
      <point x="540.345" y="289.2" type="line" smooth="yes"/>
      <point x="540.345" y="315.0"/>
      <point x="548.43" y="321.2"/>
      <point x="561.84" y="321.2" type="curve" smooth="yes"/>
      <point x="567.59" y="321.2" type="line"/>
      <point x="567.59" y="359.6" type="line"/>
      <point x="313.365" y="359.6" type="line"/>
      <point x="313.365" y="321.2" type="line"/>
      <point x="320.61" y="321.2" type="line" smooth="yes"/>
      <point x="337.4" y="321.2"/>
      <point x="347.74" y="315.0"/>
      <point x="347.74" y="289.2" type="curve" smooth="yes"/>
      <point x="347.74" y="69.4" type="line"/>
      <point x="342.22" y="54.2"/>
      <point x="335.835" y="37.2"/>
      <point x="323.01" y="37.2" type="curve" smooth="yes"/>
      <point x="272.16499999999996" y="37.2"/>
      <point x="241.77999999999997" y="128.34692307692308"/>
      <point x="241.77999999999997" y="355.0" type="curve" smooth="yes"/>
      <point x="241.77999999999997" y="573.2"/>
      <point x="276.075" y="666.4"/>
      <point x="341.215" y="666.4" type="curve" smooth="yes"/>
      <point x="407.9599132947977" y="666.4"/>
      <point x="459.10659385477277" y="595.0695708348256"/>
      <point x="474.39" y="500.0" type="curve"/>
      <point x="511.375" y="500.0" type="line"/>
      <point x="511.375" y="710.0" type="line"/>
      <point x="471.895" y="710.0" type="line"/>
      <point x="456.105" y="577.2" type="line"/>
      <point x="497" y="557" type="line"/>
      <point x="476" y="650"/>
      <point x="429.0475806451613" y="720.0"/>
      <point x="298.55" y="720.0" type="curve" smooth="yes"/>
      <point x="138.925" y="720.0"/>
      <point x="19.425" y="569.0"/>
      <point x="19.425" y="355.0" type="curve" smooth="yes"/>
      <point x="19.425" y="134.6"/>
      <point x="133.715" y="-10.0"/>
      <point x="304.3" y="-10.0" type="curve" smooth="yes"/>
      <point x="415.90999999999997" y="-10.0"/>
      <point x="507.21867147526325" y="52.81631158202977"/>
      <point x="540.345" y="104.8" type="curve"/>
    </contour>
  </outline>
</glyph>
<glyph name="H" format="2">
  <advance width="623.895"/>
  <unicode hex="0048"/>
  <outline>
    <contour>
      <point x="171.435" y="390.4" type="line"/>
      <point x="171.435" y="341.0" type="line"/>
      <point x="453.265" y="341.0" type="line"/>
      <point x="453.265" y="390.4" type="line"/>
    </contour>
    <contour>
      <point x="14.825" y="0.0" type="line"/>
      <point x="302.25" y="0.0" type="line"/>
      <point x="302.25" y="39.6" type="line"/>
      <point x="295.695" y="39.6" type="line" smooth="yes"/>
      <point x="282.17" y="39.6"/>
      <point x="266.69" y="41.896"/>
      <point x="266.69" y="48.0" type="curve" smooth="yes"/>
      <point x="266.69" y="662.0" type="line"/>
      <point x="266.69" y="668.104"/>
      <point x="282.17" y="670.4"/>
      <point x="295.695" y="670.4" type="curve" smooth="yes"/>
      <point x="302.25" y="670.4" type="line"/>
      <point x="302.25" y="710.0" type="line"/>
      <point x="14.825" y="710.0" type="line"/>
      <point x="14.825" y="670.4" type="line"/>
      <point x="23.22" y="670.4" type="line" smooth="yes"/>
      <point x="39.894999999999996" y="670.4"/>
      <point x="51.535000000000004" y="664.2"/>
      <point x="51.535000000000004" y="636.8" type="curve" smooth="yes"/>
      <point x="51.535000000000004" y="73.2" type="line" smooth="yes"/>
      <point x="51.535000000000004" y="45.9"/>
      <point x="39.849999999999994" y="39.6"/>
      <point x="23.22" y="39.6" type="curve" smooth="yes"/>
      <point x="14.825" y="39.6" type="line"/>
    </contour>
    <contour>
      <point x="322.45" y="0.0" type="line"/>
      <point x="609.0699999999999" y="0.0" type="line"/>
      <point x="609.0699999999999" y="39.6" type="line"/>
      <point x="601.48" y="39.6" type="line" smooth="yes"/>
      <point x="584.045" y="39.6"/>
      <point x="573.165" y="45.9"/>
      <point x="573.165" y="73.2" type="curve" smooth="yes"/>
      <point x="573.165" y="636.8" type="line" smooth="yes"/>
      <point x="573.165" y="664.2"/>
      <point x="583.895" y="670.4"/>
      <point x="601.48" y="670.4" type="curve" smooth="yes"/>
      <point x="609.0699999999999" y="670.4" type="line"/>
      <point x="609.0699999999999" y="710.0" type="line"/>
      <point x="322.45" y="710.0" type="line"/>
      <point x="322.45" y="670.4" type="line"/>
      <point x="328.2" y="670.4" type="line" smooth="yes"/>
      <point x="341.725" y="670.4"/>
      <point x="358.01" y="668.104"/>
      <point x="358.01" y="662.0" type="curve"/>
      <point x="358.01" y="48.0" type="line" smooth="yes"/>
      <point x="358.01" y="41.896"/>
      <point x="341.725" y="39.6"/>
      <point x="328.2" y="39.6" type="curve" smooth="yes"/>
      <point x="322.45" y="39.6" type="line"/>
    </contour>
  </outline>
</glyph>
<glyph name="L" format="2">
  <advance width="482.405"/>
  <unicode hex="004C"/>
  <outline>
    <contour>
      <point x="310.53" y="710.0" type="line"/>
      <point x="310.53" y="670.4" type="line"/>
      <point x="297.995" y="670.4" type="line" smooth="yes"/>
      <point x="278.03" y="670.4"/>
      <point x="266.69" y="665.0"/>
      <point x="266.69" y="643.6" type="curve" smooth="yes"/>
      <point x="266.69" y="48.6" type="line"/>
      <point x="331.025" y="48.6" type="line" smooth="yes"/>
      <point x="382.8" y="48.6"/>
      <point x="402.765" y="57.800000000000004"/>
      <point x="407.56" y="94.8" type="curve" smooth="yes"/>
      <point x="427.755" y="227.8" type="line"/>
      <point x="466.925" y="227.8" type="line"/>
      <point x="466.925" y="0.0" type="line"/>
      <point x="14.825" y="0.0" type="line"/>
      <point x="14.825" y="39.6" type="line"/>
      <point x="23.22" y="39.6" type="line" smooth="yes"/>
      <point x="39.849999999999994" y="39.6"/>
      <point x="51.535000000000004" y="45.8"/>
      <point x="51.535000000000004" y="71.6" type="curve" smooth="yes"/>
      <point x="51.535000000000004" y="638.4" type="line" smooth="yes"/>
      <point x="51.535000000000004" y="664.2"/>
      <point x="39.894999999999996" y="670.4"/>
      <point x="23.22" y="670.4" type="curve" smooth="yes"/>
      <point x="14.825" y="670.4" type="line"/>
      <point x="14.825" y="710.0" type="line"/>
    </contour>
  </outline>
</glyph>
<glyph name="Z" format="2">
  <advance width="475.84"/>
  <unicode hex="005A"/>
  <outline>
    <contour>
      <point x="146.99499999999998" y="49.400000000000006" type="line"/>
      <point x="183.715" y="9.2" type="line"/>
      <point x="455.195" y="640.2" type="line"/>
      <point x="455.195" y="710.0" type="line"/>
      <point x="23.299999999999997" y="710.0" type="line"/>
      <point x="23.299999999999997" y="514.4" type="line"/>
      <point x="59.78" y="514.4" type="line"/>
      <point x="74.925" y="615.0" type="line" smooth="yes"/>
      <point x="80.33" y="652.2"/>
      <point x="103.585" y="660.6"/>
      <point x="137.65" y="660.6" type="curve" smooth="yes"/>
      <point x="297.92" y="660.6" type="line"/>
      <point x="270.48" y="689.8" type="line"/>
      <point x="8.545000000000002" y="73.6" type="line"/>
      <point x="8.545000000000002" y="0.0" type="line"/>
      <point x="468.225" y="0.0" type="line"/>
      <point x="468.225" y="221.6" type="line"/>
      <point x="432.045" y="221.6" type="line"/>
      <point x="416.9" y="95.6" type="line" smooth="yes"/>
      <point x="412.34499999999997" y="57.8"/>
      <point x="393.185" y="49.400000000000006"/>
      <point x="336.465" y="49.400000000000006" type="curve" smooth="yes"/>
    </contour>
  </outline>
</glyph>
<glyph name="j" format="2">
  <advance width="259.91999999999996"/>
  <unicode hex="006A"/>
  <outline>
    <contour>
      <point x="28.81000000000001" y="-95.2" type="line" smooth="yes"/>
      <point x="28.81000000000001" y="-162.2"/>
      <point x="18.080000000000002" y="-185.4"/>
      <point x="-12.995000000000001" y="-185.4" type="curve" smooth="yes"/>
      <point x="-32.42999999999999" y="-185.4"/>
      <point x="-51.474999999999994" y="-178.6"/>
      <point x="-66.045" y="-172.0" type="curve"/>
      <point x="-66.045" y="-223.8" type="line"/>
      <point x="-54.245" y="-230.0"/>
      <point x="-22.584999999999997" y="-236.6"/>
      <point x="22.884999999999998" y="-236.6" type="curve" smooth="yes"/>
      <point x="174.20499999999998" y="-236.6"/>
      <point x="230.085" y="-170.6"/>
      <point x="230.085" y="-3.1999999999999886" type="curve" smooth="yes"/>
      <point x="230.085" y="522.8" type="line"/>
      <point x="-0.15999999999999837" y="522.8" type="line"/>
      <point x="-0.15999999999999837" y="484.8" type="line"/>
      <point x="6.890000000000004" y="482.8" type="line" smooth="yes"/>
      <point x="17.374006876635967" y="477.8710946954246"/>
      <point x="28.81000000000001" y="473.2"/>
      <point x="28.81000000000001" y="454.6" type="curve" smooth="yes"/>
    </contour>
    <contour>
      <point x="128.125" y="581.2" type="curve" smooth="yes"/>
      <point x="191.29500000000002" y="581.2"/>
      <point x="228.465" y="614.6"/>
      <point x="228.465" y="671.0" type="curve" smooth="yes"/>
      <point x="228.465" y="727.2"/>
      <point x="191.29500000000002" y="760.6"/>
      <point x="128.125" y="760.6" type="curve" smooth="yes"/>
      <point x="63.0" y="760.6"/>
      <point x="27.235000000000003" y="727.2"/>
      <point x="27.235000000000003" y="671.0" type="curve" smooth="yes"/>
      <point x="27.235000000000003" y="613.8"/>
      <point x="63.0" y="581.2"/>
    </contour>
  </outline>
</glyph>
<glyph name="braceleft" format="2">
  <advance width="278.93"/>
  <unicode hex="007B"/>
  <outline>
    <contour>
      <point x="203.70499999999998" y="215.0" type="curve" smooth="yes"/>
      <point x="203.70499999999998" y="257.2"/>
      <point x="195.5377659722378" y="280.24508525518655"/>
      <point x="85.08" y="307.2" type="curve"/>
      <point x="85.08" y="311.8" type="line"/>
      <point x="195.90740713494728" y="338.7551652593117"/>
      <point x="203.70499999999998" y="362.6"/>
      <point x="203.70499999999998" y="405.6" type="curve" smooth="yes"/>
      <point x="203.70499999999998" y="458.0"/>
      <point x="164.15499999999997" y="542.6"/>
      <point x="164.15499999999997" y="621.0" type="curve" smooth="yes"/>
      <point x="164.15499999999997" y="686.2"/>
      <point x="195.815" y="716.8"/>
      <point x="259.585" y="717.2" type="curve"/>
      <point x="253.83499999999998" y="749.0" type="line"/>
      <point x="152.7987849745877" y="756.884283976418"/>
      <point x="48.13" y="735.8"/>
      <point x="48.13" y="610.6" type="curve" smooth="yes"/>
      <point x="48.13" y="529.8"/>
      <point x="92.967608013345" y="442.19362136886"/>
      <point x="133.485" y="359.0" type="curve"/>
      <point x="138.43" y="384.6" type="line"/>
      <point x="7.6150000000000055" y="325.4" type="line"/>
      <point x="7.6150000000000055" y="293.6" type="line"/>
      <point x="138.43" y="234.4" type="line"/>
      <point x="133.485" y="260.0" type="line"/>
      <point x="86.527608013345" y="168.00637863114"/>
      <point x="48.13" y="89.2"/>
      <point x="48.13" y="8.399999999999999" type="curve" smooth="yes"/>
      <point x="48.13" y="-116.8"/>
      <point x="152.7987849745877" y="-137.884283976418"/>
      <point x="253.83499999999998" y="-130.0" type="curve"/>
      <point x="259.585" y="-98.19999999999999" type="line"/>
      <point x="195.815" y="-97.8"/>
      <point x="164.15499999999997" y="-66.8"/>
      <point x="164.15499999999997" y="-2.0" type="curve" smooth="yes"/>
      <point x="164.15499999999997" y="77.2"/>
      <point x="203.70499999999998" y="161.0"/>
    </contour>
  </outline>
</glyph>
<glyph name="yen" format="2">
  <advance width="422.8"/>
  <unicode hex="00A5"/>
  <outline>
    <contour>
      <point x="31.535000000000004" y="370.4" type="line"/>
      <point x="31.535000000000004" y="284.0" type="line"/>
      <point x="393.90999999999997" y="284.0" type="line"/>
      <point x="393.90999999999997" y="370.4" type="line"/>
    </contour>
    <contour>
      <point x="31.535000000000004" y="238.8" type="line"/>
      <point x="31.535000000000004" y="152.4" type="line"/>
      <point x="393.90999999999997" y="152.4" type="line"/>
      <point x="393.90999999999997" y="238.8" type="line"/>
    </contour>
    <contour>
      <point x="7.395" y="710.0" type="line"/>
      <point x="7.395" y="638.4" type="line"/>
      <point x="9.5" y="638.4" type="line" smooth="yes"/>
      <point x="18.815" y="638.4"/>
      <point x="23.485000000000007" y="633.8"/>
      <point x="30.89" y="611.6" type="curve" smooth="yes"/>
      <point x="121.89500000000001" y="323.8" type="line"/>
      <point x="306.0" y="321.8" type="line"/>
      <point x="388.62" y="592.2" type="line" smooth="yes"/>
      <point x="399.235" y="629.0"/>
      <point x="404.755" y="638.4"/>
      <point x="415.83" y="638.4" type="curve" smooth="yes"/>
      <point x="416.59" y="638.4" type="line"/>
      <point x="416.59" y="710.0" type="line"/>
      <point x="299.135" y="710.0" type="line"/>
      <point x="299.135" y="638.4" type="line"/>
      <point x="297.48" y="638.4" type="line" smooth="yes"/>
      <point x="306.485" y="638.4"/>
      <point x="316.94" y="630.6"/>
      <point x="316.94" y="619.4" type="curve"/>
      <point x="249.695" y="375.2" type="line"/>
      <point x="297.34" y="392.2" type="line"/>
      <point x="234.30499999999998" y="627.6" type="line"/>
      <point x="234.30499999999998" y="635.2"/>
      <point x="240.20499999999998" y="638.4"/>
      <point x="249.785" y="638.4" type="curve" smooth="yes"/>
      <point x="253.305" y="638.4" type="line"/>
      <point x="253.305" y="710.0" type="line"/>
    </contour>
    <contour>
      <point x="70.97000000000001" y="0.0" type="line"/>
      <point x="355.085" y="0.0" type="line"/>
      <point x="355.085" y="71.6" type="line"/>
      <point x="343.975" y="71.6" type="line" smooth="yes"/>
      <point x="328.34499999999997" y="71.6"/>
      <point x="316.81" y="78.6"/>
      <point x="316.81" y="107.6" type="curve" smooth="yes"/>
      <point x="316.81" y="369.4" type="line"/>
      <point x="108.44" y="369.4" type="line"/>
      <point x="108.44" y="107.6" type="line" smooth="yes"/>
      <point x="108.44" y="78.6"/>
      <point x="97.60500000000002" y="71.6"/>
      <point x="81.27499999999999" y="71.6" type="curve" smooth="yes"/>
      <point x="70.97000000000001" y="71.6" type="line"/>
    </contour>
  </outline>
</glyph>
<glyph name="logicalnot" format="2">
  <advance width="422.8"/>
  <unicode hex="00AC"/>
  <outline>
    <contour>
      <point x="259.29" y="337.0" type="line"/>
      <point x="259.29" y="138.2" type="line"/>
      <point x="385.33" y="138.2" type="line"/>
      <point x="385.33" y="406.2" type="line"/>
      <point x="37.47" y="406.2" type="line"/>
      <point x="37.47" y="287.4" type="line"/>
      <point x="292.905" y="287.4" type="line"/>
    </contour>
  </outline>
</glyph>
<glyph name="ae" format="2">
  <advance width="706.88"/>
  <unicode hex="00E6"/>
  <anchor x="362.67499999999995" y="555.0" name="top"/>
  <outline>
    <contour>
      <point x="264.705" y="306.2" type="line"/>
      <point x="94.98891335279501" y="279.39552531448"/>
      <point x="9.695000000000004" y="237.4"/>
      <point x="9.695000000000004" y="126.2" type="curve" smooth="yes"/>
      <point x="9.695000000000004" y="36.0"/>
      <point x="60.18477848099499" y="-11.0"/>
      <point x="157.44" y="-11.0" type="curve" smooth="yes"/>
      <point x="262.07" y="-11.0"/>
      <point x="305.69" y="58.2"/>
      <point x="319.675" y="145.2" type="curve"/>
      <point x="353.095" y="182.8"/>
      <point x="269.305" y="184.8"/>
      <point x="277.275" y="164.8" type="curve"/>
      <point x="274.18" y="108.6"/>
      <point x="251.34" y="69.6"/>
      <point x="225.095" y="69.6" type="curve" smooth="yes"/>
      <point x="202.62829896905498" y="69.6"/>
      <point x="192.41" y="92.0"/>
      <point x="192.41" y="135.8" type="curve" smooth="yes"/>
      <point x="192.41" y="192.8"/>
      <point x="214.925508761285" y="228.99672702946"/>
      <point x="264.9" y="242.2" type="curve"/>
    </contour>
    <contour>
      <point x="490.755" y="-13.6" type="curve" smooth="yes"/>
      <point x="594.45020408164" y="-13.6"/>
      <point x="650.6182672607799" y="38.804558196832"/>
      <point x="681.165" y="119.0" type="curve"/>
      <point x="617.455" y="162.8" type="line"/>
      <point x="601.13292959833" y="116.205102808156"/>
      <point x="574.4425" y="72.80000000000001"/>
      <point x="528.785" y="72.80000000000001" type="curve" smooth="yes"/>
      <point x="464.21" y="72.80000000000001"/>
      <point x="453.87" y="136.0"/>
      <point x="453.87" y="253.8" type="curve" smooth="yes"/>
      <point x="453.87" y="391.0"/>
      <point x="462.9" y="442.4"/>
      <point x="483.095" y="442.4" type="curve" smooth="yes"/>
      <point x="503.459763779535" y="442.4"/>
      <point x="510.629999838" y="406.19998574322"/>
      <point x="511.825" y="273.4" type="curve"/>
      <point x="532.48" y="306.0" type="line"/>
      <point x="343.745" y="306.0" type="line"/>
      <point x="344.85" y="230.4" type="line"/>
      <point x="692.85" y="230.4" type="line"/>
      <point x="692.5499999922599" y="425.59999831022"/>
      <point x="617.7581250000001" y="524.8"/>
      <point x="498.15999999999997" y="524.8" type="curve" smooth="yes"/>
      <point x="405.5947899159664" y="524.8"/>
      <point x="344.488589476987" y="464.7554407117066"/>
      <point x="321.59499999999997" y="346.0" type="curve"/>
      <point x="300.3575479179085" y="321.00177246463204"/>
      <point x="274.55456656814573" y="297.2868985375446"/>
      <point x="250.445" y="275.8" type="curve"/>
      <point x="250.445" y="88.0"/>
      <point x="337.295" y="-13.6"/>
    </contour>
    <contour>
      <point x="212.85999999999999" y="524.8" type="curve" smooth="yes"/>
      <point x="119.741629834235" y="524.8"/>
      <point x="59.430813127054996" y="477.6043419423"/>
      <point x="38.285" y="455.0" type="curve"/>
      <point x="38.285" y="347.8" type="line"/>
      <point x="185.46499999999997" y="347.8" type="line"/>
      <point x="185.46499999999997" y="454.4" type="line"/>
      <point x="147.1" y="451.8"/>
      <point x="137.635" y="418.4"/>
      <point x="170.10999999999999" y="392.4" type="curve"/>
      <point x="176.192167614185" y="422.20566477159997"/>
      <point x="192.50295918369" y="445.2"/>
      <point x="213.745" y="445.2" type="curve" smooth="yes"/>
      <point x="234.815" y="445.2"/>
      <point x="250.445" y="424.2"/>
      <point x="250.445" y="371.4" type="curve" smooth="yes"/>
      <point x="250.445" y="260.6" type="line"/>
      <point x="378.05" y="328.6" type="line"/>
      <point x="378.05" y="464.0"/>
      <point x="334.28" y="524.8"/>
    </contour>
  </outline>
</glyph>
<glyph name="ring" format="2">
  <advance width="376.8"/>
  <unicode hex="02DA"/>
  <anchor x="188.4" y="526.0" name="_top"/>
  <outline>
    <contour>
      <point x="165.065" y="665.6" type="curve" smooth="yes"/>
      <point x="165.065" y="700.4"/>
      <point x="175.725" y="714.8"/>
      <point x="188.4" y="714.8" type="curve" smooth="yes"/>
      <point x="202.925" y="714.8"/>
      <point x="212.435" y="700.4"/>
      <point x="212.435" y="665.6" type="curve" smooth="yes"/>
      <point x="212.435" y="631.6"/>
      <point x="203.27" y="616.4"/>
      <point x="188.4" y="616.4" type="curve" smooth="yes"/>
      <point x="175.38" y="616.4"/>
      <point x="165.065" y="631.6"/>
    </contour>
    <contour>
      <point x="303.39" y="665.6" type="curve" smooth="yes"/>
      <point x="303.39" y="738.0"/>
      <point x="255.77597902109" y="774.0"/>
      <point x="188.4" y="774.0" type="curve" smooth="yes"/>
      <point x="121.72402097891" y="774.0"/>
      <point x="74.11000000000001" y="738.0"/>
      <point x="74.11000000000001" y="665.6" type="curve" smooth="yes"/>
      <point x="74.11000000000001" y="593.2"/>
      <point x="121.72402097891" y="557.2"/>
      <point x="188.4" y="557.2" type="curve" smooth="yes"/>
      <point x="255.77597902109002" y="557.2"/>
      <point x="303.39" y="593.2"/>
    </contour>
  </outline>
</glyph>
<glyph name="mu" format="2">
  <advance width="615.53"/>
  <unicode hex="03BC"/>
  <outline>
    <contour>
      <point x="450.1" y="-10.0" type="curve" smooth="yes"/>
      <point x="543.39" y="-10.0"/>
      <point x="587.7" y="49.400000000000006"/>
      <point x="607.895" y="126.4" type="curve"/>
      <point x="539.4" y="161.8" type="line"/>
      <point x="531.28" y="121.0"/>
      <point x="525.61" y="97.0"/>
      <point x="510.245" y="97.0" type="curve" smooth="yes"/>
      <point x="496.94" y="97.0"/>
      <point x="493.075" y="108.6"/>
      <point x="493.075" y="135.0" type="curve" smooth="yes"/>
      <point x="493.075" y="514.8" type="line"/>
      <point x="290.65" y="514.8" type="line"/>
      <point x="290.65" y="123.4" type="line"/>
      <point x="299.24" y="125.80000000000001" type="line"/>
      <point x="306.325" y="37.6"/>
      <point x="359.835" y="-10.0"/>
    </contour>
    <contour>
      <point x="57.79" y="159.6" type="curve"/>
      <point x="87.805" y="32.8"/>
      <point x="135.29" y="-10.0"/>
      <point x="196.29999999999998" y="-10.0" type="curve" smooth="yes"/>
      <point x="247.005" y="-10.0"/>
      <point x="283.485" y="35.6"/>
      <point x="313.455" y="133.4" type="curve"/>
      <point x="291.525" y="183.0" type="line"/>
      <point x="282.265" y="130.6"/>
      <point x="269.315" y="97.4"/>
      <point x="251.695" y="97.4" type="curve" smooth="yes"/>
      <point x="236.79" y="97.4"/>
      <point x="232.30499999999998" y="117.80000000000001"/>
      <point x="232.30499999999998" y="163.0" type="curve" smooth="yes"/>
      <point x="232.30499999999998" y="514.8" type="line"/>
      <point x="29.880000000000003" y="514.8" type="line"/>
      <point x="29.880000000000003" y="-250.0" type="line"/>
      <point x="231.65999999999997" y="-250.0" type="line"/>
      <point x="231.65999999999997" y="-107.0"/>
      <point x="81.63" y="-43.6"/>
      <point x="69.935" y="179.4" type="curve"/>
      <point x="57.86" y="224.2"/>
      <point x="68.715" y="172.4"/>
    </contour>
  </outline>
</glyph>
<glyph name="lira" format="2">
  <advance width="422.8"/>
  <unicode hex="20A4"/>
  <outline>
    <contour>
      <point x="10.270000000000007" y="469.0" type="line"/>
      <point x="10.270000000000007" y="396.2" type="line"/>
      <point x="340.18" y="396.2" type="line"/>
      <point x="340.18" y="469.0" type="line"/>
    </contour>
    <contour>
      <point x="10.270000000000007" y="323.4" type="line"/>
      <point x="10.270000000000007" y="250.6" type="line"/>
      <point x="340.18" y="250.6" type="line"/>
      <point x="340.18" y="323.4" type="line"/>
    </contour>
    <contour>
      <point x="10.270000000000001" y="-10.6" type="line"/>
      <point x="165.535" y="16.4"/>
      <point x="249.82" y="137.6"/>
      <point x="249.82" y="257.8" type="curve" smooth="yes"/>
      <point x="249.82" y="381.6"/>
      <point x="223.875" y="462.6"/>
      <point x="223.875" y="547.2" type="curve" smooth="yes"/>
      <point x="223.875" y="605.4"/>
      <point x="230.489640287785" y="636.8"/>
      <point x="251.64" y="636.8" type="curve" smooth="yes"/>
      <point x="261.6935546875" y="636.8"/>
      <point x="270.377298199715" y="624.21828963038"/>
      <point x="275.69" y="606.4" type="curve"/>
      <point x="298.39" y="614.6"/>
      <point x="311.19" y="639.6"/>
      <point x="269.985" y="640.0" type="curve"/>
      <point x="269.985" y="546.0" type="line"/>
      <point x="398.855" y="546.0" type="line"/>
      <point x="398.855" y="662.6" type="line"/>
      <point x="379.466995201665" y="685.21428000198"/>
      <point x="328.889034090905" y="719.6"/>
      <point x="237.61" y="719.6" type="curve" smooth="yes"/>
      <point x="105.908556034475" y="719.6"/>
      <point x="41.045" y="635.0"/>
      <point x="41.045" y="532.0" type="curve" smooth="yes"/>
      <point x="41.045" y="410.6"/>
      <point x="110.405" y="338.8"/>
      <point x="110.405" y="228.6" type="curve" smooth="yes"/>
      <point x="110.405" y="159.60000000000002"/>
      <point x="71.235" y="119.2"/>
      <point x="10.270000000000001" y="96.4" type="curve"/>
    </contour>
    <contour>
      <point x="121.10000000000001" y="129.6" type="curve"/>
      <point x="192.655" y="40.0"/>
      <point x="229.755" y="-10.0"/>
      <point x="287.705" y="-10.0" type="curve" smooth="yes"/>
      <point x="362.28499999999997" y="-10.0"/>
      <point x="404.675" y="63.2"/>
      <point x="425.40999999999997" y="168.4" type="curve"/>
      <point x="349.67" y="199.2" type="line"/>
      <point x="337.515" y="137.8"/>
      <point x="323.99" y="118.4"/>
      <point x="292.455" y="118.4" type="curve" smooth="yes"/>
      <point x="252.445" y="118.4"/>
      <point x="232.365" y="143.60000000000002"/>
      <point x="185.65" y="199.0" type="curve"/>
      <point x="186.535" y="198.0"/>
      <point x="120.95" y="131.2"/>
    </contour>
  </outline>
</glyph>
<glyph name="litre" format="2">
  <advance width="432.66499999999996"/>
  <unicode hex="2113"/>
  <outline>
    <contour>
      <point x="249.66" y="254.8" type="curve"/>
      <point x="249.66" y="497.7938424821002"/>
      <point x="278.41976415094337" y="637.6"/>
      <point x="303.655" y="637.6" type="curve" smooth="yes"/>
      <point x="312.18676470588235" y="637.6"/>
      <point x="316.41" y="616.8"/>
      <point x="316.41" y="577.4" type="curve" smooth="yes"/>
      <point x="316.41" y="419.6"/>
      <point x="259.1225887160297" y="325.2009869441367"/>
      <point x="2.9100000000000037" y="240.8" type="curve"/>
      <point x="20.195" y="179.2" type="line"/>
      <point x="263.95087504888744" y="262.01993476277033"/>
      <point x="417.37" y="398.2"/>
      <point x="417.37" y="574.2" type="curve" smooth="yes"/>
      <point x="417.37" y="649.4"/>
      <point x="376.095" y="712.0"/>
      <point x="298.87" y="712.0" type="curve" smooth="yes"/>
      <point x="168.150141342655" y="712.0"/>
      <point x="73.385" y="525.4147457627118"/>
      <point x="73.385" y="258.0" type="curve"/>
      <point x="73.385" y="68.0"/>
      <point x="151.223638297865" y="-10.0"/>
      <point x="256.055" y="-10.0" type="curve" smooth="yes"/>
      <point x="339.11" y="-10.0"/>
      <point x="387.94" y="65.4"/>
      <point x="412.08" y="168.4" type="curve"/>
      <point x="352.555" y="199.6" type="line"/>
      <point x="335.35" y="119.8"/>
      <point x="312.89" y="72.4"/>
      <point x="287.75" y="72.4" type="curve" smooth="yes"/>
      <point x="262.96881355917" y="72.4"/>
      <point x="249.66" y="103.2203076923077"/>
    </contour>
  </outline>
</glyph>
<glyph name="trademark" format="2">
  <advance width="723.97"/>
  <unicode hex="2122"/>
  <outline>
    <contour>
      <point x="14.710000000000004" y="710.0" type="line"/>
      <point x="14.710000000000004" y="589.6" type="line"/>
      <point x="65.84" y="589.6" type="line"/>
      <point x="67.795" y="644.8" type="line" smooth="yes"/>
      <point x="67.84" y="662.4"/>
      <point x="77.95" y="668.2"/>
      <point x="103.205" y="668.2" type="curve" smooth="yes"/>
      <point x="102.055" y="668.2" type="line"/>
      <point x="102.055" y="432.6" type="line" smooth="yes"/>
      <point x="102.055" y="419.6"/>
      <point x="96.995" y="416.4"/>
      <point x="89.83" y="416.4" type="curve" smooth="yes"/>
      <point x="84.47" y="416.4" type="line"/>
      <point x="84.47" y="374.2" type="line"/>
      <point x="228.155" y="374.2" type="line"/>
      <point x="228.155" y="416.4" type="line"/>
      <point x="223.70499999999998" y="416.4" type="line" smooth="yes"/>
      <point x="216.54" y="416.4"/>
      <point x="210.57" y="419.6"/>
      <point x="210.57" y="432.6" type="curve" smooth="yes"/>
      <point x="210.57" y="668.2" type="line"/>
      <point x="209.52499999999998" y="668.2" type="line" smooth="yes"/>
      <point x="235.585" y="668.2"/>
      <point x="244.785" y="662.4"/>
      <point x="245.74" y="644.8" type="curve" smooth="yes"/>
      <point x="248.04" y="589.6" type="line"/>
      <point x="298.02" y="589.6" type="line"/>
      <point x="298.02" y="710.0" type="line"/>
    </contour>
    <contour>
      <point x="317.49" y="374.2" type="line"/>
      <point x="398.775" y="374.2" type="line"/>
      <point x="398.775" y="416.4" type="line"/>
      <point x="396.325" y="416.4" type="line" smooth="yes"/>
      <point x="389.125" y="416.4"/>
      <point x="381.96" y="417.8"/>
      <point x="381.96" y="420.6" type="curve" smooth="yes"/>
      <point x="381.96" y="701.2" type="line"/>
      <point x="373.22" y="700.2" type="line"/>
      <point x="438.635" y="373.2" type="line"/>
      <point x="510.81" y="373.2" type="line"/>
      <point x="579.72" y="699.4" type="line"/>
      <point x="571.13" y="700.2" type="line"/>
      <point x="571.13" y="420.6" type="line" smooth="yes"/>
      <point x="571.13" y="417.8"/>
      <point x="563.965" y="416.4"/>
      <point x="556.915" y="416.4" type="curve" smooth="yes"/>
      <point x="553.465" y="416.4" type="line"/>
      <point x="553.465" y="374.2" type="line"/>
      <point x="695.9300000000001" y="374.2" type="line"/>
      <point x="695.9300000000001" y="416.4" type="line"/>
      <point x="692.975" y="416.4" type="line" smooth="yes"/>
      <point x="685.465" y="416.4"/>
      <point x="679.45" y="419.6"/>
      <point x="679.45" y="432.6" type="curve" smooth="yes"/>
      <point x="679.45" y="651.8" type="line" smooth="yes"/>
      <point x="679.45" y="665.8"/>
      <point x="685.465" y="668.6"/>
      <point x="692.975" y="668.6" type="curve" smooth="yes"/>
      <point x="695.9300000000001" y="668.6" type="line"/>
      <point x="695.9300000000001" y="710.0" type="line"/>
      <point x="530.535" y="710.0" type="line"/>
      <point x="469.87" y="416.6" type="line"/>
      <point x="515.49" y="474.0" type="line"/>
      <point x="483.33500000000004" y="710.0" type="line"/>
      <point x="317.49" y="710.0" type="line"/>
      <point x="317.49" y="668.6" type="line"/>
      <point x="320.94" y="668.6" type="line" smooth="yes"/>
      <point x="328.255" y="668.6"/>
      <point x="333.165" y="665.8"/>
      <point x="333.165" y="651.8" type="curve" smooth="yes"/>
      <point x="333.165" y="432.6" type="line" smooth="yes"/>
      <point x="333.165" y="419.6"/>
      <point x="328.255" y="416.4"/>
      <point x="320.94" y="416.4" type="curve"/>
      <point x="317.49" y="416.4" type="line"/>
    </contour>
  </outline>
</glyph>
<glyph name="acute.pl" format="2">
  <advance width="377.5"/>
  <anchor x="163.8" y="489.0" name="_top"/>
  <outline>
    <contour>
      <point x="117.765" y="682.4" type="curve" smooth="yes"/>
      <point x="115.27000000000001" y="585.6" type="line"/>
      <point x="115.27000000000001" y="561.6" type="line"/>
      <point x="181.51" y="561.6" type="line"/>
      <point x="209.675" y="621.0" type="line" smooth="yes"/>
      <point x="246.475" y="673.6"/>
      <point x="260.31" y="703.2"/>
      <point x="260.31" y="734.0" type="curve" smooth="yes"/>
      <point x="260.31" y="768.4"/>
      <point x="240.23" y="797.0"/>
      <point x="195.23000000000002" y="797.0" type="curve" smooth="yes"/>
      <point x="141.49" y="797.0"/>
      <point x="119.11000000000001" y="755.4"/>
    </contour>
  </outline>
</glyph>
<glyph name="blacksquare" format="2">
  <advance width="443.8"/>
  <outline>
    <contour>
      <point x="64.0" y="104.0" type="line"/>
      <point x="379.8" y="104.0" type="line"/>
      <point x="379.8" y="522.0" type="line"/>
      <point x="64.0" y="522.0" type="line"/>
    </contour>
  </outline>
</glyph>
<glyph name="blacktriangle" format="2">
  <advance width="432.3"/>
  <outline>
    <contour>
      <point x="97.8" y="40.0" type="line"/>
      <point x="379.8" y="307.0" type="line"/>
      <point x="97.8" y="575.0" type="line"/>
    </contour>
  </outline>
</glyph>
<glyph name="cent.altprop" format="2">
  <advance width="465.46500000000003"/>
  <outline>
    <contour>
      <point x="300.48" y="71.2" type="curve" smooth="yes"/>
      <point x="254.83032320620555" y="71.2"/>
      <point x="228.44" y="138.6"/>
      <point x="228.44" y="255.8" type="curve" smooth="yes"/>
      <point x="228.44" y="372.4"/>
      <point x="248.2591994147157" y="442.4"/>
      <point x="279.125" y="442.4" type="curve" smooth="yes"/>
      <point x="291.9770121951219" y="442.4"/>
      <point x="295.86731937450986" y="429.5761447815858"/>
      <point x="302.565" y="409.4" type="curve"/>
      <point x="324.335" y="419.0"/>
      <point x="330.28" y="465.0"/>
      <point x="296.17" y="466.4" type="curve"/>
      <point x="296.17" y="334.6" type="line"/>
      <point x="438.6" y="334.6" type="line"/>
      <point x="438.6" y="468.6" type="line"/>
      <point x="423.7727158764338" y="488.78556360152936"/>
      <point x="369.285125" y="524.8"/>
      <point x="265.9" y="524.8" type="curve" smooth="yes"/>
      <point x="116.67769030420891" y="524.8"/>
      <point x="22.115000000000006" y="423.0"/>
      <point x="22.115000000000006" y="255.8" type="curve" smooth="yes"/>
      <point x="22.115000000000006" y="85.6"/>
      <point x="124.22567692024313" y="-13.6"/>
      <point x="260.04499999999996" y="-13.6" type="curve" smooth="yes"/>
      <point x="364.2976497695853" y="-13.6"/>
      <point x="415.63061316440536" y="44.99348752780008"/>
      <point x="448.29499999999996" y="132.4" type="curve"/>
      <point x="387.275" y="175.0" type="line"/>
      <point x="371.1282653764615" y="126.21174998124638"/>
      <point x="342.80002747252746" y="71.2"/>
    </contour>
    <contour>
      <point x="311.66999999999996" y="483.8" type="line"/>
      <point x="311.66999999999996" y="623.0" type="line"/>
      <point x="220.6" y="623.0" type="line"/>
      <point x="220.6" y="477.6" type="line"/>
    </contour>
    <contour>
      <point x="220.6" y="33.400000000000006" type="line"/>
      <point x="220.6" y="-126.0" type="line"/>
      <point x="311.66999999999996" y="-126.0" type="line"/>
      <point x="311.66999999999996" y="23.6" type="line"/>
    </contour>
  </outline>
</glyph>
<glyph name="circumflex_grave.uc" format="2">
  <advance width="385.4"/>
  <anchor x="184.8" y="696.0" name="_top"/>
  <outline>
    <contour>
      <point x="429.685" y="970.8" type="curve" smooth="yes"/>
      <point x="405.88" y="1013.2"/>
      <point x="375.82" y="1019.4"/>
      <point x="332.81" y="1019.4" type="curve" smooth="yes"/>
      <point x="294.28499999999997" y="1019.4"/>
      <point x="268.985" y="992.0"/>
      <point x="268.985" y="961.6" type="curve" smooth="yes"/>
      <point x="268.985" y="920.0"/>
      <point x="298.85" y="901.6"/>
      <point x="350.945" y="884.0" type="curve" smooth="yes"/>
      <point x="416.585" y="873.0" type="line"/>
      <point x="420.575" y="876.4"/>
      <point x="476.235" y="881.0"/>
      <point x="476.235" y="886.2" type="curve"/>
      <point x="476.235" y="890.2"/>
      <point x="474.35999999999996" y="916.4"/>
      <point x="471.405" y="916.4" type="curve"/>
      <point x="468.58155737704914" y="916.4"/>
      <point x="431.7561433123269" y="976.6101031465963"/>
    </contour>
    <component base="circumflex.uc" xOffset="-79.38"/>
  </outline>
</glyph>
<glyph name="f.alt" format="2">
  <advance width="331.55499999999995"/>
  <outline>
    <contour>
      <point x="-3.150000000000002" y="522.8" type="line"/>
      <point x="-3.150000000000002" y="478.0" type="line"/>
      <point x="325.46" y="478.0" type="line"/>
      <point x="325.46" y="522.8" type="line"/>
    </contour>
    <contour>
      <point x="297.83500000000004" y="0.0" type="line"/>
      <point x="297.83500000000004" y="37.2" type="line"/>
      <point x="290.245" y="37.2" type="line" smooth="yes"/>
      <point x="272.7756896551724" y="37.2"/>
      <point x="249.325" y="39.4"/>
      <point x="249.325" y="50.0" type="curve" smooth="yes"/>
      <point x="249.325" y="625.6" type="line" smooth="yes"/>
      <point x="249.325" y="683.8941772151899"/>
      <point x="260.56330188679243" y="712.8"/>
      <point x="284.80499999999995" y="712.8" type="curve" smooth="yes"/>
      <point x="298.41049999999996" y="712.8"/>
      <point x="306.7456457523712" y="704.1200834318959"/>
      <point x="307.015" y="692.0" type="curve"/>
      <point x="305.68" y="695.0"/>
      <point x="285.635" y="735.6"/>
      <point x="288.935" y="735.4" type="curve"/>
      <point x="288.935" y="603.6" type="line"/>
      <point x="403.075" y="603.6" type="line"/>
      <point x="403.075" y="729.2" type="line"/>
      <point x="376.8455177265185" y="742.0153971642447"/>
      <point x="332.83853448275863" y="759.6"/>
      <point x="265.945" y="759.6" type="curve" smooth="yes"/>
      <point x="156.44" y="759.6"/>
      <point x="47.245" y="703.4"/>
      <point x="47.245" y="556.0" type="curve" smooth="yes"/>
      <point x="47.245" y="66.0" type="line" smooth="yes"/>
      <point x="47.245" y="44.2"/>
      <point x="37.815000000000005" y="37.2"/>
      <point x="19.77" y="37.2" type="curve" smooth="yes"/>
      <point x="10.420000000000002" y="37.2" type="line"/>
      <point x="10.420000000000002" y="0.0" type="line"/>
    </contour>
  </outline>
</glyph>
<glyph name="peso.proportional" format="2">
  <advance width="585.2049999999999"/>
  <outline>
    <contour>
      <point x="29.315" y="0.0" type="line"/>
      <point x="303.195" y="0.0" type="line"/>
      <point x="303.195" y="71.6" type="line"/>
      <point x="284.0" y="71.6" type="line" smooth="yes"/>
      <point x="273.27" y="71.6"/>
      <point x="258.87" y="74.6"/>
      <point x="258.87" y="84.80000000000001" type="curve" smooth="yes"/>
      <point x="258.87" y="228.6" type="line"/>
      <point x="283.575" y="228.6" type="line" smooth="yes"/>
      <point x="432.515" y="228.6"/>
      <point x="514.11" y="321.2"/>
      <point x="514.11" y="476.0" type="curve" smooth="yes"/>
      <point x="514.11" y="626.2"/>
      <point x="438.41499999999996" y="710.0"/>
      <point x="287.07" y="710.0" type="curve" smooth="yes"/>
      <point x="29.315" y="710.0" type="line"/>
      <point x="29.315" y="638.4" type="line"/>
      <point x="36.905" y="638.4" type="line" smooth="yes"/>
      <point x="54.49" y="638.4"/>
      <point x="65.22" y="631.4"/>
      <point x="65.22" y="602.4" type="curve" smooth="yes"/>
      <point x="65.22" y="107.6" type="line" smooth="yes"/>
      <point x="65.22" y="78.6"/>
      <point x="54.34" y="71.6"/>
      <point x="36.905" y="71.6" type="curve" smooth="yes"/>
      <point x="29.315" y="71.6" type="line"/>
    </contour>
    <contour>
      <point x="274.95" y="628.6" type="line" smooth="yes"/>
      <point x="307.14" y="628.6"/>
      <point x="328.785" y="581.6"/>
      <point x="328.785" y="471.8" type="curve" smooth="yes"/>
      <point x="328.785" y="362.4"/>
      <point x="307.14" y="309.8"/>
      <point x="272.845" y="309.8" type="curve" smooth="yes"/>
      <point x="258.87" y="309.8" type="line"/>
      <point x="258.87" y="628.6" type="line"/>
    </contour>
    <contour>
      <point x="29.315" y="505.4" type="line"/>
      <point x="29.315" y="430.2" type="line"/>
      <point x="176.805" y="430.2" type="line"/>
      <point x="207.73" y="438.2" type="line"/>
      <point x="443.705" y="438.2" type="line"/>
      <point x="480.655" y="430.2" type="line"/>
      <point x="566.115" y="430.2" type="line"/>
      <point x="566.115" y="505.4" type="line"/>
      <point x="491.73" y="505.4" type="line"/>
      <point x="456.885" y="497.4" type="line"/>
      <point x="182.82" y="497.4" type="line"/>
      <point x="166.225" y="505.4" type="line"/>
    </contour>
  </outline>
</glyph>
<glyph name="plus.sub" format="2">
  <advance width="310.28"/>
  <outline>
    <contour>
      <point x="111.21" y="235.0" type="line"/>
      <point x="111.21" y="-75.0" type="line"/>
      <point x="200.17499999999998" y="-75.0" type="line"/>
      <point x="200.17499999999998" y="235.0" type="line"/>
    </contour>
    <contour>
      <point x="268.74" y="121.6" type="line"/>
      <point x="42.345" y="121.6" type="line"/>
      <point x="42.345" y="38.4" type="line"/>
      <point x="268.74" y="38.4" type="line"/>
    </contour>
  </outline>
</glyph>
<glyph name="ringhalfleft" format="2">
  <advance width="377.5"/>
  <anchor x="188.4" y="566.0" name="_top"/>
  <outline>
    <contour>
      <point x="188.1" y="650.8" type="line"/>
      <point x="178.83" y="650.8"/>
      <point x="171.515" y="654.8"/>
      <point x="171.515" y="665.6" type="curve" smooth="yes"/>
      <point x="171.515" y="677.2"/>
      <point x="179.175" y="680.4"/>
      <point x="188.1" y="680.4" type="curve"/>
      <point x="188.1" y="739.6" type="line"/>
      <point x="118.295" y="739.6"/>
      <point x="67.66000000000001" y="714.8"/>
      <point x="67.66000000000001" y="665.6" type="curve" smooth="yes"/>
      <point x="67.66000000000001" y="616.4"/>
      <point x="118.295" y="591.6"/>
      <point x="188.1" y="591.6" type="curve"/>
    </contour>
  </outline>
</glyph>
<glyph name="ringhalfright" format="2">
  <advance width="377.5"/>
  <anchor x="188.29500000000002" y="566.0" name="_top"/>
  <outline>
    <contour>
      <point x="188.595" y="769.2" type="line"/>
      <point x="259.205" y="769.2"/>
      <point x="309.84" y="736.4"/>
      <point x="309.84" y="665.6" type="curve" smooth="yes"/>
      <point x="309.84" y="594.8"/>
      <point x="259.205" y="562.0"/>
      <point x="188.595" y="562.0" type="curve"/>
      <point x="188.595" y="611.6" type="line"/>
      <point x="199.82" y="611.6"/>
      <point x="205.985" y="630.0"/>
      <point x="205.985" y="665.6" type="curve" smooth="yes"/>
      <point x="205.985" y="702.0"/>
      <point x="198.67" y="719.6"/>
      <point x="188.595" y="719.6" type="curve"/>
    </contour>
  </outline>
</glyph>
<glyph name="six.lin" format="2">
  <advance width="422.8"/>
  <outline>
    <contour>
      <point x="370.03499999999997" y="663.0" type="line"/>
      <point x="264.265" y="626.8"/>
      <point x="192.86999999999998" y="494.8"/>
      <point x="192.86999999999998" y="287.0" type="curve" smooth="yes"/>
      <point x="192.86999999999998" y="117.6"/>
      <point x="197.805" y="68.0"/>
      <point x="211.815" y="68.0" type="curve" smooth="yes"/>
      <point x="224.91500000000002" y="68.0"/>
      <point x="226.79" y="120.8"/>
      <point x="226.79" y="229.0" type="curve" smooth="yes"/>
      <point x="226.79" y="317.0"/>
      <point x="226.985" y="374.6"/>
      <point x="205.34" y="374.6" type="curve" smooth="yes"/>
      <point x="189.755" y="374.6"/>
      <point x="177.575" y="335.8"/>
      <point x="163.51" y="285.8" type="curve"/>
      <point x="163.36" y="288.0"/>
      <point x="159.45" y="349.8"/>
      <point x="159.79500000000002" y="351.0" type="curve"/>
      <point x="171.01999999999998" y="399.2"/>
      <point x="197.38" y="453.0"/>
      <point x="262.61" y="453.0" type="curve" smooth="yes"/>
      <point x="353.9" y="453.0"/>
      <point x="413.76" y="376.2"/>
      <point x="413.76" y="236.2" type="curve" smooth="yes"/>
      <point x="413.76" y="82.2"/>
      <point x="336.765" y="-10.0"/>
      <point x="217.105" y="-10.0" type="curve" smooth="yes"/>
      <point x="89.75" y="-10.0"/>
      <point x="8.350000000000005" y="84.0"/>
      <point x="8.350000000000005" y="290.2" type="curve" smooth="yes"/>
      <point x="8.350000000000005" y="513.0"/>
      <point x="150.46" y="697.2"/>
      <point x="358.5" y="740.0" type="curve"/>
    </contour>
  </outline>
</glyph>
<glyph name="uni20AB.proportional" format="2">
  <advance width="528.235"/>
  <outline>
    <contour>
      <point x="227.25499999999997" y="249.2" type="curve" smooth="yes"/>
      <point x="227.25499999999997" y="357.8"/>
      <point x="234.92776119405" y="425.4"/>
      <point x="260.77" y="425.4" type="curve" smooth="yes"/>
      <point x="288.741598984775" y="425.4"/>
      <point x="295.055" y="378.0"/>
      <point x="307.74" y="310.8" type="curve"/>
      <point x="307.545" y="311.2"/>
      <point x="344.345" y="326.4"/>
      <point x="343.61" y="326.8" type="curve"/>
      <point x="326.105" y="458.0"/>
      <point x="281.09761802577" y="524.8"/>
      <point x="192.69" y="524.8" type="curve" smooth="yes"/>
      <point x="92.119166666655" y="524.8"/>
      <point x="21.23" y="411.0"/>
      <point x="21.23" y="249.2" type="curve" smooth="yes"/>
      <point x="21.23" y="91.0"/>
      <point x="84.164268292695" y="-13.4"/>
      <point x="187.135" y="-13.4" type="curve" smooth="yes"/>
      <point x="262.945" y="-13.4"/>
      <point x="295.71" y="45.2"/>
      <point x="333.075" y="160.0" type="curve"/>
      <point x="333.91499999999996" y="160.6"/>
      <point x="306.015" y="212.2"/>
      <point x="307.545" y="212.8" type="curve"/>
      <point x="287.46500000000003" y="137.2"/>
      <point x="277.81058823528" y="86.00000000000001"/>
      <point x="254.87" y="86.00000000000001" type="curve" smooth="yes"/>
      <point x="234.72071428572" y="86.00000000000001"/>
      <point x="227.25499999999997" y="143.2"/>
    </contour>
    <contour>
      <point x="288.58" y="718.0" type="line"/>
      <point x="288.58" y="107.8" type="line"/>
      <point x="300.92" y="121.4" type="line"/>
      <point x="300.92" y="0.0" type="line"/>
      <point x="513.03" y="0.0" type="line"/>
      <point x="513.03" y="70.0" type="line"/>
      <point x="506.93499999999995" y="71.6" type="line" smooth="yes"/>
      <point x="494.09999999999997" y="76.4"/>
      <point x="491.81" y="81.0"/>
      <point x="491.81" y="99.6" type="curve" smooth="yes"/>
      <point x="491.81" y="718.0" type="line"/>
    </contour>
    <contour>
      <point x="81.47999999999999" y="-93.6" type="line"/>
      <point x="81.47999999999999" y="-184.0" type="line"/>
      <point x="459.14" y="-184.0" type="line"/>
      <point x="459.14" y="-93.6" type="line"/>
    </contour>
    <contour>
      <point x="187.215" y="655.0" type="line"/>
      <point x="187.215" y="572.6" type="line"/>
      <point x="519.735" y="572.6" type="line"/>
      <point x="519.735" y="655.0" type="line"/>
    </contour>
  </outline>
</glyph>
